<?xml version="1.0" encoding="UTF-8" standalone="no"?>
<!-- Created with Inkscape (http://www.inkscape.org/) -->
<svg xmlns:dc="http://purl.org/dc/elements/1.1/" xmlns:cc="http://creativecommons.org/ns#" xmlns:rdf="http://www.w3.org/1999/02/22-rdf-syntax-ns#" xmlns:svg="http://www.w3.org/2000/svg" xmlns="http://www.w3.org/2000/svg" xmlns:sodipodi="http://sodipodi.sourceforge.net/DTD/sodipodi-0.dtd" xmlns:inkscape="http://www.inkscape.org/namespaces/inkscape" width="725.4032" height="391.58151" id="svg2985" version="1.1" inkscape:version="0.48.4 r9939" sodipodi:docname="overlap-3.svg">
  <defs id="defs2987"/>
  <sodipodi:namedview id="base" pagecolor="#ffffff" bordercolor="#666666" borderopacity="1.0" inkscape:pageopacity="0.0" inkscape:pageshadow="2" inkscape:zoom="0.84852814" inkscape:cx="335.33495" inkscape:cy="197.46909" inkscape:current-layer="layer1" inkscape:document-units="px" showgrid="false" showguides="true" inkscape:guide-bbox="true" guidetolerance="20" inkscape:snap-global="true" inkscape:snap-object-midpoints="false" inkscape:snap-bbox="true" inkscape:bbox-paths="false" inkscape:snap-grids="false" inkscape:snap-nodes="false" fit-margin-top="0" fit-margin-left="0" fit-margin-right="0" fit-margin-bottom="0" inkscape:window-width="1366" inkscape:window-height="768" inkscape:window-x="0" inkscape:window-y="0" inkscape:window-maximized="1">
    <sodipodi:guide orientation="0,1" position="303.86932,-3.2149006e-07" id="guide3781"/>
    <sodipodi:guide orientation="0,1" position="660.95824,360.62447" id="guide3827"/>
  </sodipodi:namedview>
  <metadata id="metadata2990">
    <rdf:RDF>
      <cc:Work rdf:about="">
        <dc:format>image/svg+xml</dc:format>
        <dc:type rdf:resource="http://purl.org/dc/dcmitype/StillImage"/>
        <dc:title/>
      </cc:Work>
    </rdf:RDF>
  </metadata>
  <g id="layer1" inkscape:label="Layer 1" inkscape:groupmode="layer" transform="translate(-102.71708,-99.995453)">
    <path sodipodi:type="arc" style="fill:none;stroke:#000000;stroke-width:5;stroke-linecap:butt;stroke-linejoin:miter;stroke-miterlimit:4;stroke-opacity:1;stroke-dasharray:none" id="path2993" sodipodi:cx="239.16667" sodipodi:cy="370.83334" sodipodi:rx="139.16667" sodipodi:ry="139.16667" d="m 378.33334,370.83334 c 0,76.85963 -62.30704,139.16668 -139.16667,139.16668 C 162.30704,510.00002 100,447.69297 100,370.83334 c 0,-76.85963 62.30704,-139.16667 139.16667,-139.16667 76.85963,0 139.16667,62.30704 139.16667,139.16667 z" transform="matrix(1.2049238,0,0,1.2049238,369.2451,-125.94651)"/>
    <path sodipodi:type="arc" style="fill:none;stroke:#000000;stroke-width:5;stroke-linecap:butt;stroke-linejoin:miter;stroke-miterlimit:4;stroke-opacity:1;stroke-dasharray:none" id="path2993-1" sodipodi:cx="239.16667" sodipodi:cy="370.83334" sodipodi:rx="139.16667" sodipodi:ry="139.16667" d="m 378.33334,370.83334 c 0,76.85963 -62.30704,139.16668 -139.16667,139.16668 C 162.30704,510.00002 100,447.69297 100,370.83334 c 0,-76.85963 62.30704,-139.16667 139.16667,-139.16667 76.85963,0 139.16667,62.30704 139.16667,139.16667 z" transform="matrix(1.2049238,0,0,1.2049238,48.876615,-125.94651)"/>
    <path sodipodi:type="arc" style="fill:none;stroke:#000000;stroke-width:5;stroke-linecap:butt;stroke-linejoin:miter;stroke-miterlimit:4;stroke-opacity:1;stroke-dasharray:none" id="path2993-1-1" sodipodi:cx="239.16667" sodipodi:cy="370.83334" sodipodi:rx="139.16667" sodipodi:ry="139.16667" d="m 378.33334,370.83334 c 0,76.85963 -62.30704,139.16668 -139.16667,139.16668 C 162.30704,510.00002 100,447.69297 100,370.83334 c 0,-76.85963 62.30704,-139.16667 139.16667,-139.16667 76.85963,0 139.16667,62.30704 139.16667,139.16667 z" transform="matrix(1.2049238,0,0,1.2049238,-14.762993,-125.94651)"/>
    <text xml:space="preserve" style="font-size:40px;font-style:normal;font-variant:normal;font-weight:normal;font-stretch:normal;line-height:125%;letter-spacing:0px;word-spacing:0px;fill:#000000;fill-opacity:1;stroke:none;font-family:DejaVu Sans;-inkscape-font-specification:DejaVu Sans" x="155.56349" y="130.38608" id="text3819" sodipodi:linespacing="125%"><tspan sodipodi:role="line" id="tspan3821" x="155.56349" y="130.38608">Good</tspan></text>
    <text xml:space="preserve" style="font-size:40px;font-style:normal;font-variant:normal;font-weight:normal;font-stretch:normal;line-height:125%;letter-spacing:0px;word-spacing:0px;fill:#000000;fill-opacity:1;stroke:none;font-family:DejaVu Sans;-inkscape-font-specification:DejaVu Sans" x="619.89697" y="130.38608" id="text3823" sodipodi:linespacing="125%"><tspan sodipodi:role="line" id="tspan3825" x="619.89697" y="130.38608">Bad</tspan></text>
    <text xml:space="preserve" style="font-size:40px;font-style:normal;font-variant:normal;font-weight:normal;font-stretch:normal;line-height:125%;letter-spacing:0px;word-spacing:0px;fill:#000000;fill-opacity:1;stroke:none;font-family:DejaVu Sans;-inkscape-font-specification:DejaVu Sans" x="288.93332" y="130.95248" id="text3829" sodipodi:linespacing="125%"><tspan sodipodi:role="line" id="tspan3831" x="288.93332" y="130.95248">Well-Typed</tspan></text>
    <path style="fill:#ff0000;stroke-width:5;stroke-miterlimit:4;stroke-dasharray:none" d="m 462.05417,244.52607 c -0.77895,-5.56816 -1.41627,-16.21582 -1.41627,-23.66146 0,-14.63943 2.30199,-34.76404 3.68478,-32.21334 1.5038,2.77393 3.47694,21.05476 3.47694,32.21334 0,11.15858 -1.97314,29.43941 -3.47694,32.21334 -0.46884,0.86482 -1.48939,-2.98246 -2.26851,-8.55188 z" id="path3964" inkscape:connector-curvature="0" transform="translate(33.18491,99.995468)"/>
  </g>
</svg>