<?xml version="1.0" encoding="UTF-8" standalone="no"?>
<!-- Created with Inkscape (http://www.inkscape.org/) -->
<svg xmlns:dc="http://purl.org/dc/elements/1.1/" xmlns:cc="http://creativecommons.org/ns#" xmlns:rdf="http://www.w3.org/1999/02/22-rdf-syntax-ns#" xmlns:svg="http://www.w3.org/2000/svg" xmlns="http://www.w3.org/2000/svg" xmlns:sodipodi="http://sodipodi.sourceforge.net/DTD/sodipodi-0.dtd" xmlns:inkscape="http://www.inkscape.org/namespaces/inkscape" width="758.40149" height="391.58148" id="svg2985" version="1.1" inkscape:version="0.48.4 r9939" sodipodi:docname="overlap-2.svg">
  <defs id="defs2987"/>
  <sodipodi:namedview id="base" pagecolor="#ffffff" bordercolor="#666666" borderopacity="1.0" inkscape:pageopacity="0.0" inkscape:pageshadow="2" inkscape:zoom="0.84852814" inkscape:cx="404.86712" inkscape:cy="197.46908" inkscape:current-layer="layer1" inkscape:document-units="px" showgrid="false" showguides="true" inkscape:guide-bbox="true" guidetolerance="20" inkscape:snap-global="true" inkscape:snap-object-midpoints="false" inkscape:snap-bbox="true" inkscape:bbox-paths="false" inkscape:snap-grids="false" inkscape:snap-nodes="false" fit-margin-top="0" fit-margin-left="0" fit-margin-right="0" fit-margin-bottom="0" inkscape:window-width="1366" inkscape:window-height="768" inkscape:window-x="0" inkscape:window-y="0" inkscape:window-maximized="1">
    <sodipodi:guide orientation="0,1" position="373.40149,-4.1143219e-06" id="guide3781"/>
    <sodipodi:guide orientation="0,1" position="730.49041,360.62446" id="guide3827"/>
  </sodipodi:namedview>
  <metadata id="metadata2990">
    <rdf:RDF>
      <cc:Work rdf:about="">
        <dc:format>image/svg+xml</dc:format>
        <dc:type rdf:resource="http://purl.org/dc/dcmitype/StillImage"/>
        <dc:title/>
      </cc:Work>
    </rdf:RDF>
  </metadata>
  <g id="layer1" inkscape:label="Layer 1" inkscape:groupmode="layer" transform="translate(-33.18491,-99.995468)">
    <path sodipodi:type="arc" style="fill:none;stroke:#000000;stroke-width:5;stroke-linecap:butt;stroke-linejoin:miter;stroke-miterlimit:4;stroke-opacity:1;stroke-dasharray:none" id="path2993" sodipodi:cx="239.16667" sodipodi:cy="370.83334" sodipodi:rx="139.16667" sodipodi:ry="139.16667" d="m 378.33334,370.83334 c 0,76.85963 -62.30704,139.16668 -139.16667,139.16668 C 162.30704,510.00002 100,447.69297 100,370.83334 c 0,-76.85963 62.30704,-139.16667 139.16667,-139.16667 76.85963,0 139.16667,62.30704 139.16667,139.16667 z" transform="matrix(1.2049238,0,0,1.2049238,332.71125,-125.94651)"/>
    <path sodipodi:type="arc" style="fill:none;stroke:#000000;stroke-width:5;stroke-linecap:butt;stroke-linejoin:miter;stroke-miterlimit:4;stroke-opacity:1;stroke-dasharray:none" id="path2993-1" sodipodi:cx="239.16667" sodipodi:cy="370.83334" sodipodi:rx="139.16667" sodipodi:ry="139.16667" d="m 378.33334,370.83334 c 0,76.85963 -62.30704,139.16668 -139.16667,139.16668 C 162.30704,510.00002 100,447.69297 100,370.83334 c 0,-76.85963 62.30704,-139.16667 139.16667,-139.16667 76.85963,0 139.16667,62.30704 139.16667,139.16667 z" transform="matrix(1.2049238,0,0,1.2049238,48.876615,-125.94651)"/>
    <path sodipodi:type="arc" style="fill:none;stroke:#000000;stroke-width:5;stroke-linecap:butt;stroke-linejoin:miter;stroke-miterlimit:4;stroke-opacity:1;stroke-dasharray:none" id="path2993-1-1" sodipodi:cx="239.16667" sodipodi:cy="370.83334" sodipodi:rx="139.16667" sodipodi:ry="139.16667" d="m 378.33334,370.83334 a 139.16667,139.16667 0 1 1 -278.33334,0 139.16667,139.16667 0 1 1 278.33334,0 z" transform="matrix(1.2049238,0,0,1.2049238,-14.762993,-125.94651)"/>
    <text xml:space="preserve" style="font-size:40px;font-style:normal;font-variant:normal;font-weight:normal;font-stretch:normal;line-height:125%;letter-spacing:0px;word-spacing:0px;fill:#000000;fill-opacity:1;stroke:none;font-family:DejaVu Sans;-inkscape-font-specification:DejaVu Sans" x="155.56349" y="130.38608" id="text3819" sodipodi:linespacing="125%"><tspan sodipodi:role="line" id="tspan3821" x="155.56349" y="130.38608">Good</tspan></text>
    <text xml:space="preserve" style="font-size:40px;font-style:normal;font-variant:normal;font-weight:normal;font-stretch:normal;line-height:125%;letter-spacing:0px;word-spacing:0px;fill:#000000;fill-opacity:1;stroke:none;font-family:DejaVu Sans;-inkscape-font-specification:DejaVu Sans" x="575.11353" y="130.38609" id="text3823" sodipodi:linespacing="125%"><tspan sodipodi:role="line" id="tspan3825" x="575.11353" y="130.38609">Bad</tspan></text>
    <text xml:space="preserve" style="font-size:40px;font-style:normal;font-variant:normal;font-weight:normal;font-stretch:normal;line-height:125%;letter-spacing:0px;word-spacing:0px;fill:#000000;fill-opacity:1;stroke:none;font-family:DejaVu Sans;-inkscape-font-specification:DejaVu Sans" x="288.93332" y="130.95248" id="text3829" sodipodi:linespacing="125%"><tspan sodipodi:role="line" id="tspan3831" x="288.93332" y="130.95248">Well-Typed</tspan></text>
    <path style="fill:#99ff55;stroke-width:5;stroke-miterlimit:4;stroke-dasharray:none" d="m 258.61387,378.25208 c -15.38091,-4.73838 -19.95465,-6.57843 -31.13362,-12.52531 -53.91051,-28.67878 -87.29729,-84.08119 -87.29729,-144.86216 0,-74.63146 50.75428,-140.177241 122.78466,-158.56823 9.18006,-2.343877 9.21806,-2.343898 18.33259,-0.01 71.44635,18.294919 122.8598,84.655533 122.8598,158.578213 0,73.90179 -51.36824,140.33158 -122.57247,158.51163 -5.07333,1.29534 -9.93138,2.30752 -10.79565,2.24929 -0.86429,-0.0582 -6.34439,-1.57629 -12.17802,-3.37345 l 0,0 z" id="path3873" inkscape:connector-curvature="0" transform="translate(33.18491,99.995468)"/>
  </g>
</svg>